<?xml version="1.0" encoding="utf-8"?>
<!-- Generator: Adobe Illustrator 16.0.0, SVG Export Plug-In . SVG Version: 6.00 Build 0)  -->
<!DOCTYPE svg PUBLIC "-//W3C//DTD SVG 1.1//EN" "http://www.w3.org/Graphics/SVG/1.1/DTD/svg11.dtd">
<svg version="1.1" id="图层_1" xmlns="http://www.w3.org/2000/svg" xmlns:xlink="http://www.w3.org/1999/xlink" x="0px" y="0px"
	 width="64px" height="64px" viewBox="-167.5 232.5 64 64" enable-background="new -167.5 232.5 64 64" xml:space="preserve">
<g>
	<path d="M-118.496,287.465h-0.004C-118.5,287.587-118.497,287.525-118.496,287.465z M-127.945,269.309
		c4.625-2.507,7.766-7.401,7.766-13.031c0-8.18-6.635-14.813-14.819-14.813c-8.184,0-14.82,6.633-14.82,14.813
		c0,5.63,3.141,10.523,7.767,13.031c-7.28,2.828-12.448,9.881-12.448,18.156h2.926c-0.011-0.24,0.074,0.243,0.074,0
		c0-9.13,7.701-17,16-17c9.174,0,17,7.87,17,17c0.005-0.12,0.005-0.06,0.004,0h2.996
		C-115.5,279.189-120.668,272.137-127.945,269.309z M-146.5,255.965c0-6.352,5.148-11.5,11.5-11.5c6.352,0,11.5,5.148,11.5,11.5
		s-5.148,11.5-11.5,11.5C-141.352,267.465-146.5,262.316-146.5,255.965z"/>
</g>
</svg>
