<?xml version="1.0" encoding="utf-8"?>
<!-- Generator: Adobe Illustrator 18.0.0, SVG Export Plug-In . SVG Version: 6.00 Build 0)  -->
<!DOCTYPE svg PUBLIC "-//W3C//DTD SVG 1.1//EN" "http://www.w3.org/Graphics/SVG/1.1/DTD/svg11.dtd" [
	<!ENTITY st0 "fill-rule:evenodd;clip-rule:evenodd;">
]>
<svg version="1.1" id="图层_1" xmlns="http://www.w3.org/2000/svg" xmlns:xlink="http://www.w3.org/1999/xlink" x="0px" y="0px"
	 viewBox="0 0 64 64" style="enable-background:new 0 0 64 64;" xml:space="preserve">
<path style="&st0;" d="M32,47.5c-11.6,0-18.2-7.3-26-15.5c9.1-9.6,16.5-15.5,26-15.5c11.5,0,20,8.5,26,15.7
	C52.1,38.2,43.6,47.5,32,47.5z M32,18.2c-8.5,0-15.2,5-23.6,13.8c7.1,7.4,13.3,13.8,23.6,13.8c10.2,0,17.9-7.7,23.7-13.7
	C49.8,25.4,42,18.2,32,18.2z M32,42.3c-5.7,0-10.4-4.6-10.4-10.3c0-5.7,4.7-10.3,10.4-10.3c5.7,0,10.4,4.6,10.4,10.3
	C42.4,37.7,37.7,42.3,32,42.3z M32,23.4c-4.8,0-8.7,3.9-8.7,8.6c0,4.7,3.9,8.6,8.7,8.6c4.8,0,8.7-3.9,8.7-8.6
	C40.7,27.3,36.8,23.4,32,23.4z M32,38.9c-3.8,0-7-3.1-7-6.9c0-3.8,3.1-6.9,7-6.9c3.8,0,7,3.1,7,6.9C39,35.8,35.8,38.9,32,38.9z
	 M32,26.8c-2.9,0-5.2,2.3-5.2,5.2c0,2.9,2.3,5.2,5.2,5.2c2.9,0,5.2-2.3,5.2-5.2C37.2,29.1,34.9,26.8,32,26.8z"/>
</svg>
