<?xml version="1.0" encoding="utf-8"?>
<!-- Generator: Adobe Illustrator 15.0.0, SVG Export Plug-In . SVG Version: 6.00 Build 0)  -->
<!DOCTYPE svg PUBLIC "-//W3C//DTD SVG 1.1//EN" "http://www.w3.org/Graphics/SVG/1.1/DTD/svg11.dtd">
<svg version="1.1" id="图层_1" xmlns="http://www.w3.org/2000/svg" xmlns:xlink="http://www.w3.org/1999/xlink" x="0px" y="0px"
	 width="32px" height="32px" viewBox="0 0 32 32" enable-background="new 0 0 32 32" xml:space="preserve">
<g>
	<path fill-rule="evenodd" clip-rule="evenodd" d="M30.702,4.528l-1.043,1.06l-4.171-4.241l1.042-1.06
		c0.384-0.39,1.007-0.39,1.391,0l2.781,2.827C31.086,3.505,31.086,4.138,30.702,4.528z M2.458,6.513c-0.543,0-0.983,0.447-0.983,1
		v21.989c0,0.553,0.44,1,0.983,1h21.629c0.543,0,0.983-0.447,0.983-1V13.709l1.475-1.35v17.142c0,1.381-1.101,2.499-2.458,2.499
		H2.458C1.101,32,0,30.882,0,29.501V7.512c0-1.38,1.101-2.499,2.458-2.499h16.714l-1.476,1.5H2.458z M12.569,22.889
		c-0.228,0.067-4.791,1.395-5.181,1.508c-0.256,0.074-0.471-0.15-0.401-0.408c0.078-0.287,1.387-4.945,1.486-5.278
		c0.073-0.243,0.37-0.358,0.56-0.165c0.192,0.195,3.572,3.632,3.705,3.767C12.911,22.486,12.854,22.806,12.569,22.889z
		 M13.669,21.844l-4.171-4.24L23.402,3.468l4.171,4.241L13.669,21.844z"/>
</g>
</svg>
