<?xml version="1.0" encoding="utf-8"?>
<!-- Generator: Adobe Illustrator 16.0.0, SVG Export Plug-In . SVG Version: 6.00 Build 0)  -->
<!DOCTYPE svg PUBLIC "-//W3C//DTD SVG 1.1//EN" "http://www.w3.org/Graphics/SVG/1.1/DTD/svg11.dtd">
<svg version="1.1" id="图层_1" xmlns="http://www.w3.org/2000/svg" xmlns:xlink="http://www.w3.org/1999/xlink" x="0px" y="0px"
	 width="64px" height="64px" viewBox="-167.5 232.5 64 64" enable-background="new -167.5 232.5 64 64" xml:space="preserve">
<g>
	<path d="M-119.192,263.594c-0.299-3.602-1.72-6.881-3.923-9.484l4.986-4.989l-1.986-1.988l-4.986,4.99
		c-2.604-2.205-5.879-3.627-9.479-3.925V242.5h-2.812v5.695c-3.599,0.299-6.875,1.721-9.477,3.926l-4.987-4.99l-1.987,1.988
		l4.986,4.99c-2.202,2.604-3.624,5.883-3.922,9.483h-5.69v2.813h5.691c0.298,3.602,1.72,6.881,3.922,9.484l-3.581,3.584l1.987,1.987
		l3.582-3.584c2.602,2.205,5.878,3.627,9.477,3.927v5.695h2.81v-5.695c3.601-0.299,6.877-1.721,9.479-3.926l3.581,3.584l1.987-1.988
		l-3.582-3.584c2.203-2.604,3.624-5.883,3.923-9.483h5.691v-2.813H-119.192z M-135.968,278.5c-7.456,0-13.5-6.044-13.5-13.5
		s6.044-13.5,13.5-13.5c7.457,0,13.5,6.044,13.5,13.5S-128.512,278.5-135.968,278.5z M-135.968,261.5c-1.934,0-3.5,1.566-3.5,3.5
		s1.566,3.5,3.5,3.5c1.933,0,3.5-1.566,3.5-3.5S-134.035,261.5-135.968,261.5z"/>
</g>
</svg>
