<?xml version="1.0" encoding="utf-8"?>
<!-- Generator: Adobe Illustrator 16.0.0, SVG Export Plug-In . SVG Version: 6.00 Build 0)  -->
<!DOCTYPE svg PUBLIC "-//W3C//DTD SVG 1.1//EN" "http://www.w3.org/Graphics/SVG/1.1/DTD/svg11.dtd">
<svg version="1.1" id="图层_1" xmlns="http://www.w3.org/2000/svg" xmlns:xlink="http://www.w3.org/1999/xlink" x="0px" y="0px"
	 width="267px" height="41.996px" viewBox="0 0 267 41.996" enable-background="new 0 0 267 41.996" xml:space="preserve">
<path fill-rule="evenodd" clip-rule="evenodd" fill="#FFFFFF" d="M267,39.744h-4.113l-5.438-9.668
	c-0.115-0.189-0.32-0.315-0.557-0.315s-0.443,0.126-0.559,0.315l-0.004,0.003l-5.301,9.665h-4.012l7.191-12.907h-6.301v-2.206h7.01
	v-7.054h-7.01v-2.338h2.512v-3.2h3.885v3.2h5.148v-3.2h3.885v3.2h2.793v2.338h-7.277v7.054h7.277v2.206h-6.58L267,39.744z
	 M238.398,21.955v6.734v4.503h2.738v-4.503h-2.738l1.412-2.234h1.326v-4.5H238.398l1.412-2.24h1.326v-2.879h4.373v16.358h2.398
	v2.236h-2.398v4.314h-4.373V35.43h-5.822c-0.711,0-1.289-0.584-1.289-1.304V15.218h-1.145v-2.24h15.027v2.24h-9.51V21.955z
	 M218.332,38.44c0,0.721-0.578,1.304-1.289,1.304h-7.408v-2.245h4.164v-3.837h-13.645v-2.246h13.645V30.36l5.734-2.511h-17.557
	v-2.246H227.5v2.246l-9.168,3.566h12.398v2.246h-12.398V38.44z M226.096,24.079h-17.857l1.412-2.237h12.998v-2.769h-14.41v5.006
	h-4.74v-7.244h23.889v5.942C227.387,23.496,226.809,24.079,226.096,24.079z M200.154,12.978h12.92v-1.39h4.738v1.39h12.918v2.24
	h-30.576V12.978z M186.986,21.053c-3.963,0-7.684-1.555-10.479-4.376c-4.289-4.334-5.529-10.793-3.156-16.451L173.447,0l0.238,0.005
	c1.236,0.02,2.477,0.16,3.684,0.413l0.471,0.1l-0.229,0.428c-2.234,4.168-1.479,9.417,1.834,12.763
	c2.012,2.031,4.689,3.15,7.541,3.15c1.779,0,3.539-0.448,5.092-1.298l0.424-0.232l0.098,0.476c0.25,1.222,0.389,2.473,0.41,3.721
	l0.004,0.244l-0.221,0.097C190.949,20.655,188.996,21.053,186.986,21.053z M186.99,14.441c-2.213,0-4.291-0.867-5.85-2.444
	c-2.762-2.789-3.211-7.206-1.068-10.501l0.16-0.245l0.27,0.106c1.094,0.431,2.162,0.97,3.174,1.602l0.344,0.214l-0.252,0.32
	c-1.307,1.656-1.174,4.038,0.309,5.538c0.775,0.784,1.811,1.216,2.914,1.216c0.932,0,1.842-0.321,2.566-0.903l0.316-0.254
	l0.213,0.346c0.625,1.02,1.156,2.099,1.584,3.207l0.105,0.272l-0.242,0.162C190.184,13.968,188.613,14.441,186.99,14.441z
	 M174.814,18.389c3.246,3.277,7.566,5.083,12.17,5.083c1.811,0,3.598-0.284,5.314-0.843l0.559-0.183l-0.092,0.585
	c-0.215,1.344-0.566,2.667-1.045,3.933l-0.07,0.185l-0.191,0.041c-1.467,0.315-2.973,0.476-4.477,0.476
	c-2.471,0-4.875-0.42-7.135-1.224c1.293,3.697,1.58,7.743,0.74,11.731l-0.039,0.192l-0.182,0.07
	c-1.256,0.485-2.568,0.841-3.895,1.054l-0.578,0.093l0.18-0.563c2-6.261,0.389-13.029-4.197-17.664
	c-3.244-3.278-7.568-5.084-12.172-5.084c-1.809,0-3.598,0.284-5.313,0.843l-0.559,0.181l0.094-0.584
	c0.215-1.342,0.564-2.665,1.045-3.933l0.07-0.185l0.189-0.041c1.465-0.314,2.973-0.475,4.475-0.475c2.471,0,4.877,0.42,7.139,1.225
	c-1.295-3.698-1.582-7.744-0.744-11.731l0.039-0.192l0.184-0.071c1.256-0.485,2.564-0.839,3.893-1.055l0.578-0.094l-0.18,0.563
	C168.619,6.982,170.227,13.753,174.814,18.389z M159.705,18.69c3.963,0,7.684,1.555,10.477,4.377
	c4.291,4.334,5.531,10.794,3.158,16.451l-0.096,0.226l-0.24-0.005c-1.234-0.02-2.475-0.161-3.68-0.415l-0.475-0.099l0.23-0.428
	c2.234-4.168,1.479-9.416-1.834-12.764c-2.01-2.031-4.689-3.151-7.543-3.151c-1.777,0-3.537,0.449-5.088,1.297l-0.426,0.234
	l-0.098-0.478c-0.25-1.22-0.389-2.472-0.41-3.719l-0.004-0.244l0.223-0.096C155.742,19.09,157.693,18.69,159.705,18.69z
	 M131.43,31.008c0-4.761,3.832-8.676,8.545-8.729l5.939-0.006v3.371h-4.951c-3.293,0-5.764,2.035-5.764,5.364
	c0,3.33,2.471,5.364,5.764,5.364h4.951v3.372h-5.838C135.307,39.744,131.43,35.825,131.43,31.008z M141.672,13.381l0.285-0.468
	c1.305,0.696,2.459,1.32,3.457,1.872l-0.465,0.685c-1.283-0.792-2.373-1.428-3.277-1.909v4.79h-0.713v-7.058h-3.457v-0.684h8.412
	v0.684h-4.242V13.381z M126.65,39.77l-7.795-12.324v12.299l-3.527,0.025V22.305l-0.042,0.078l-6.699,11.315v6.076h-3.526v-6.092
	l-6.752-11.399h3.951l0.02,0.036l4.545,7.707l4.563-7.743h3.953l-0.008,0.012l0.083-0.012h3.44l7.784,11.753V22.295h3.528
	l-0.006,17.475H126.65z M128.08,18.351c-2.021-0.792-3.291-2.041-3.813-3.745c-0.452,1.584-1.724,2.868-3.813,3.853
	c-0.144-0.216-0.31-0.445-0.498-0.685c2.184-0.912,3.443-2.184,3.776-3.817h-3.671v-0.648h3.778v-0.216v-1.944h-3.28V10.5h7.449
	v0.649h-3.385c0,0.24-0.013,0.612-0.035,1.117v1.044h3.885v0.648h-3.777c0.593,1.896,1.876,3.109,3.85,3.637
	C128.4,17.834,128.247,18.085,128.08,18.351z M110.639,18.351c-1.141-0.841-1.878-1.8-2.211-2.881
	c-0.26,1.104-0.973,2.1-2.137,2.989c-0.049-0.048-0.119-0.132-0.215-0.252c-0.118-0.144-0.213-0.252-0.284-0.324
	c1.306-0.792,2.03-1.873,2.175-3.241h-1.961v-0.612h2.031v-0.503v-1.082h-1.781v-0.647h2.28c0.333-0.504,0.688-1.117,1.069-1.837
	l0.606,0.288c-0.31,0.528-0.631,1.045-0.964,1.549h1.461v0.647h-2.031v1.045v0.54h2.318v0.612h-2.246
	c0.404,1.369,1.188,2.401,2.353,3.097C110.936,17.93,110.782,18.135,110.639,18.351z M106.576,10.32l0.498-0.36
	c0.358,0.409,0.689,0.828,0.998,1.261l-0.568,0.396C107.24,11.185,106.934,10.752,106.576,10.32z M105.686,16.01
	c0.236-0.023,0.499-0.071,0.783-0.145c0,0.192,0.012,0.396,0.036,0.612c-0.097,0-0.227,0.024-0.393,0.073
	c-0.19,0.024-0.333,0.048-0.427,0.071v1.802h-0.607v-1.657c-0.403,0.071-0.996,0.18-1.781,0.324
	c-0.309,0.073-0.535,0.121-0.678,0.144l-0.106-0.684c0.214-0.048,0.44-0.083,0.677-0.107v-5.258h-0.57v-0.613h3.6v0.613h-0.533
	V16.01z M105.078,11.185h-1.283v1.259h1.283V11.185z M105.078,13.021h-1.283v1.297h1.283V13.021z M105.078,14.893h-1.283v1.477
	c0.144-0.023,0.333-0.06,0.57-0.108c0.31-0.071,0.547-0.121,0.713-0.144V14.893z M85.929,24.642c0,1.313,1.063,2.379,2.365,2.379
	l4.993,0.006c3.496,0,6.338,2.858,6.338,6.373c0,3.516-2.842,6.375-6.338,6.375H82.375v-3.99l10.912-0.007
	c1.304,0,2.365-1.066,2.365-2.378c0-1.272-0.993-2.315-2.26-2.374l-5.1-0.011c-3.496,0-6.34-2.857-6.34-6.373
	c0-3.515,2.844-6.374,6.341-6.374h10.015v3.989l-10.234,0.019C86.852,22.386,85.929,23.405,85.929,24.642z M91.586,14.319
	c-0.564,0-1.022-0.462-1.022-1.034c0-0.57,0.458-1.033,1.022-1.033s1.021,0.463,1.021,1.033
	C92.607,13.856,92.15,14.319,91.586,14.319z M74.277,39.774h-3.526v-6.092L64,22.283h3.951l0.019,0.036l4.546,7.707l4.563-7.743
	h3.952l-6.753,11.412V39.774z M74.635,13.849c-0.355-0.504-0.737-0.972-1.141-1.405l0.5-0.466c0.402,0.431,0.807,0.899,1.21,1.404
	L74.635,13.849z M77.771,13.272c0.475-0.503,0.83-0.936,1.07-1.295l0.568,0.466c-0.476,0.601-0.914,1.082-1.318,1.441l-0.463-0.432
	C77.652,13.43,77.699,13.369,77.771,13.272z M80.266,17.774c-1.473-0.599-2.649-1.547-3.527-2.844v3.529h-0.643v-3.565
	c-0.879,1.201-2.055,2.197-3.527,2.989c-0.121-0.168-0.273-0.36-0.465-0.576c1.379-0.697,2.543-1.572,3.493-2.629h-3.351v-0.612
	h3.85v-2.305h-3.35v-0.612h3.35V9.888h0.643v1.261h3.386v0.612h-3.386v2.305h3.848v0.612h-3.422
	c0.903,1.104,2.092,1.932,3.566,2.485C80.539,17.378,80.385,17.582,80.266,17.774z M62.826,17.702
	c-1.498-0.769-2.674-1.849-3.529-3.242v3.963h-0.641V14.46c-0.904,1.466-2.08,2.606-3.529,3.422c-0.143-0.24-0.297-0.42-0.463-0.541
	c1.52-0.768,2.696-1.813,3.529-3.133h-3.388v-0.612h3.851v-1.513h-3.351v-0.647h3.351V9.924h0.641v1.513h3.386v0.647h-3.386v1.513
	h3.85v0.612H59.76c0.809,1.249,1.984,2.234,3.529,2.954C63.075,17.355,62.92,17.534,62.826,17.702z M64.844,27.491
	c0,2.872-2.301,5.198-5.141,5.206l5.157,7.146h-4.357l-6.884-9.536c-0.143-0.169-0.266-0.341-0.371-0.513l-0.295-0.409h6.737
	c1.035,0,1.873-0.848,1.873-1.894s-0.838-1.894-1.873-1.894h-0.739l-0.002,0.008h-7.313v14.169h-3.527V22.272h3.527v0.011h8.054
	C62.537,22.283,64.844,24.614,64.844,27.491z M33.375,22.283h13.473v3.322h-9.945v3.762h9.945v3.322h-9.945v3.761h9.945v3.324
	H33.375V22.283z M14.908,22.283h4.137l5.096,10.918l5.09-10.918h4.145l-9.232,19.713L14.908,22.283z M4.33,22.347v4.619h10.578
	v4.079H4.33v4.618h10.578v4.081H0V18.268h14.908v4.015v0.063H4.33z M41.963,17.378c0.023,0.672-0.345,1.007-1.104,1.007h-1.212
	c0-0.071-0.023-0.191-0.072-0.36c-0.023-0.144-0.048-0.264-0.07-0.359c0.381,0.023,0.783,0.036,1.212,0.036
	c0.428,0.024,0.617-0.12,0.569-0.433v-0.576h-4.028v-0.576h4.028V15.65l2.102-0.576h-5.345v-0.576h6.522v0.755l-2.602,0.757v0.108
	h3.813v0.576h-3.813V17.378z M38.542,13.885V12.12h5.916v1.765H38.542z M43.816,12.66h-4.633v0.685h4.633V12.66z M37.365,10.969
	h3.957c-0.025-0.048-0.061-0.12-0.107-0.217c-0.071-0.167-0.191-0.396-0.356-0.684l0.677-0.252c0.213,0.432,0.381,0.756,0.499,0.972
	l-0.392,0.181h4.063v0.576h-8.34V10.969z M159.699,25.303c2.213,0,4.293,0.867,5.852,2.443c2.762,2.79,3.211,7.207,1.066,10.502
	l-0.158,0.244l-0.271-0.107c-1.096-0.433-2.164-0.971-3.172-1.599l-0.344-0.215l0.252-0.319c1.307-1.658,1.176-4.039-0.309-5.538
	c-0.777-0.783-1.811-1.217-2.912-1.217c-0.934,0-1.846,0.321-2.568,0.904l-0.316,0.255l-0.213-0.347
	c-0.627-1.026-1.158-2.103-1.584-3.206l-0.104-0.274l0.242-0.161C156.506,25.773,158.076,25.303,159.699,25.303z"/>
</svg>
